<?xml version="1.0" encoding="utf-8"?>
<!-- Generator: Adobe Illustrator 16.0.0, SVG Export Plug-In . SVG Version: 6.00 Build 0)  -->
<!DOCTYPE svg PUBLIC "-//W3C//DTD SVG 1.1//EN" "http://www.w3.org/Graphics/SVG/1.1/DTD/svg11.dtd">
<svg version="1.1" id="Layer_1" xmlns="http://www.w3.org/2000/svg" xmlns:xlink="http://www.w3.org/1999/xlink" x="0px" y="0px"
	 width="800px" height="800px" viewBox="0 0 800 800" enable-background="new 0 0 800 800" xml:space="preserve">
<g>
	
		<radialGradient id="SVGID_1_" cx="-743.1958" cy="611.835" r="0.76" gradientTransform="matrix(733.335 0 0 -710.0016 545286.375 434607)" gradientUnits="userSpaceOnUse">
		<stop  offset="0" style="stop-color:#4B2B36;stop-opacity:0.98"/>
		<stop  offset="1" style="stop-color:#250012"/>
	</radialGradient>
	<path fill="url(#SVGID_1_)" d="M33.332,43.332h733.335v713.334H33.332V43.332z"/>
	<path fill="#FF408C" d="M33.332,43.332h733.335v713.334H33.332V43.332z M-0.001,790.002h800.002V9.999H-0.001V790.002z
		 M506.001,333.999c-5.001-2.333-11.668-3.333-19.669-3.333c-42.999,0-72.999,33.001-72.999,88c0,62.666,30.666,88,69.001,88
		c8.333,0,16.999-1,23.667-4V333.999z M488.332,279.666c7.001,0,11.001,0,17.667,0.667v-88.667c0-2.333,1.666-3.333,3.332-3.333h54
		c2.667,0,3.334,1,3.334,2.666v311.667c0,9.334,0,21,1.666,33.668c0,2.332-0.667,2.666-3,4C536.664,554,506.332,560,477.999,560
		c-73.666,0-126.334-45.666-126.334-138.666C351.333,341.666,403.999,279.666,488.332,279.666L488.332,279.666z M292.667,550.668
		c0,3.33-0.667,4.332-4.334,4.332H237c-3.333,0-4.334-1.666-4.334-4.332V192.666c0-3.333,1.667-4.335,4.334-4.335h51.667
		c2.666,0,4,1,4,4.001V550.668z"/>
</g>
</svg>
