<?xml version="1.0" encoding="utf-8"?>
<!-- Generator: Adobe Illustrator 24.0.2, SVG Export Plug-In . SVG Version: 6.00 Build 0)  -->
<svg version="1.1" id="Layer_1" xmlns="http://www.w3.org/2000/svg" xmlns:xlink="http://www.w3.org/1999/xlink" x="0px" y="0px"
	 viewBox="0 0 800 800" style="enable-background:new 0 0 800 800;" xml:space="preserve">
<style type="text/css">
	.st0{fill:#0769AD;}
	.st1{fill:#78CFF5;}
</style>
<g>
	<circle class="st0" cx="400" cy="400" r="400"/>
	<path class="st1" d="M590.2,326.3c35.9,0,68.8-12,94.2-31.8C658,329.3,614.3,352,564.8,352c-80.6,0-145.9-60.3-145.9-134.8
		c0-41.3,20.1-78.2,51.7-102.9c-16.6,21.9-26.3,48.5-26.3,77.3C444.3,266,509.6,326.3,590.2,326.3z"/>
	<path class="st1" d="M683,418.8c-38.7,30.4-88.8,48.7-143.6,48.7c-122.7,0-222.1-91.9-222.1-205.4c0-44,15-84.8,40.4-118.2
		c-48,37.7-78.5,93.9-78.5,156.7c0,113.4,99.4,205.4,222.1,205.4C576.5,506,642.8,471.6,683,418.8z"/>
	<path class="st1" d="M685.7,536.3c-55.2,52.7-131.6,85.2-216.1,85.2c-168.2,0-304.6-129.3-304.6-288.8c0-50.5,13.7-98.1,37.8-139.4
		c-54.7,52.2-88.5,124.1-88.5,203.6c0,159.5,136.4,288.8,304.6,288.8C533.8,685.7,633.8,625.4,685.7,536.3z"/>
</g>
</svg>
