<?xml version="1.0" encoding="utf-8"?>
<!-- Generator: Adobe Illustrator 24.0.2, SVG Export Plug-In . SVG Version: 6.00 Build 0)  -->
<svg version="1.1" id="Penpot" xmlns="http://www.w3.org/2000/svg" xmlns:xlink="http://www.w3.org/1999/xlink" x="0px" y="0px"
	 viewBox="0 0 800 800" style="enable-background:new 0 0 800 800;" xml:space="preserve">
<path d="M95.7,208.2c-8.8,5.6-14.1,15.3-14,25.7v388c0.1,23.7,13.9,45.2,35.3,55.4l239.1,113.1c27.9,12.8,60,12.8,87.9,0L683,677.2
	c21.4-10.1,35.2-31.7,35.3-55.4v-388c0.1-10.5-5.4-20.3-14.4-25.7l-89.5-46.1V122c0-7.4-2.1-14.6-6-20.9l-53.4-86.7
	C546.4,0.3,528-4.2,513.8,4.4c-4.1,2.5-7.6,6-10.1,10.1l-51.6,84.7l-26.5-42.9c-5.6-8.8-15.3-14.1-25.7-14
	c-10.4,0.3-20,5.7-25.7,14.4l-26.1,42.5l-52.6-84.7c-8.6-14.2-27.1-18.7-41.3-10.1c-4.1,2.5-7.6,6-10.1,10.1l-52.8,86.7
	c-3.9,6.3-6,13.5-6,20.9v40.1L95.7,208.2z M614.4,207.8l28.1,14l-28.1,13.2V207.8z M516.5,70.2h25.7l20.1,32.5h-65.8L516.5,70.2z
	 M574.3,142.8V254l-24.5,11.6V142.8L574.3,142.8z M484.9,142.8h24.9v141.6l-24.9,12V142.8z M257.4,70.2H283l20.1,32.5h-65.8
	L257.4,70.2z M315.1,142.8v153.3l-24.5-11.6V142.8H315.1z M225.7,142.8h24.9v122.8L225.7,254L225.7,142.8z M185.6,207.8v27.3
	l-28.1-13.2L185.6,207.8z M133.8,640.7c-7.3-3.4-12-10.8-12-18.9V249.1l258,122v384.8L133.8,640.7z M379.7,326.6l-24.5-11.6V185
	h24.5V326.6z M366.9,144.8l20.5-32.9h24.9l20.5,32.9H366.9z M444.7,185v130.4L419.9,327V185H444.7z M420.1,756.3V371.5l258.4-122.4
	v372.7c0,8.2-4.9,15.6-12.4,18.9L420.1,756.3z"/>
</svg>
