<?xml version="1.0" encoding="utf-8"?>
<!-- Generator: Adobe Illustrator 24.0.2, SVG Export Plug-In . SVG Version: 6.00 Build 0)  -->
<svg version="1.1" id="Layer_1" xmlns="http://www.w3.org/2000/svg" xmlns:xlink="http://www.w3.org/1999/xlink" x="0px" y="0px"
	 viewBox="0 0 800 800" style="enable-background:new 0 0 800 800;" xml:space="preserve">
<style type="text/css">
	.st0{fill:#CD6799;}
</style>
<title>file_type_sass</title>
<path class="st0" d="M688.8,445.2c-25.1,0-49.9,5.8-72.5,16.8c-7.1-11.7-12.5-24.4-16.2-37.5c-2.1-10.3-2.6-20.9-1.5-31.4
	c2.4-11.5,5.6-22.9,9.5-34.1c-0.1-1.5-1.7-8.3-17.8-8.6c-16.1-0.2-29.9,3.1-31.4,7.3c-2.8,7.8-5,15.7-6.7,23.8
	c-13.3,32.8-29.7,64.3-48.9,94.1c-10.8-17.7-15.2-38.5-12.6-59c2.4-11.5,5.6-22.9,9.5-34.1c-0.1-1.5-1.7-8.3-17.8-8.6
	c-16.1-0.2-29.9,3.1-31.4,7.3c-1.5,4.3-3.4,14.3-6.7,23.8c-3.3,9.5-42.4,96.7-52.6,119.2c-5.3,11.4-9.8,20.7-13,27l0,0
	c-0.2,0.4-0.3,0.8-0.6,1.2c-2.9,5.4-4.4,8.3-4.4,8.3v0.1c-2.2,3.9-4.5,7.6-5.7,7.6c-2-8.2-1.9-16.7,0.3-24.8
	c5.7-30.3,19.7-77.3,19.6-78.9c0-0.9,2.6-9.1-9.1-13.3c-5.6-2.6-12.2-1.5-16.5,2.9c-1,0-1.7,2.5-1.7,2.5s12.7-52.9-24.3-52.9
	c-29.1,5.8-54.6,23.2-70.7,48.1c-9.9,5.4-31.1,16.9-53.8,29.4c-8.6,4.8-17.5,9.7-25.9,14.3c-0.6-0.6-1.2-1.3-1.7-1.9
	C139.2,446,56.5,412.1,60,348c1.3-23.4,9.3-84.7,158.8-159.3c123-60.6,220.9-43.8,237.9-6.6c24.3,53.2-52.5,152-179.6,166.3
	c-28.5,5.8-58-1.7-80.4-20.3c-6.7-7.3-7.7-7.7-10.2-6.3c-4.1,2.2-1.5,8.8,0,12.6c9.8,17.7,26.3,30.7,45.9,36.1
	c50,10.8,102.1,5.6,149-14.8c77.1-29.8,137.1-112.6,119.5-182c-17.7-70.4-134.6-93.6-245.2-54.3c-69.3,23.3-133.3,60-188.4,108.1
	C6.5,284.5-3.1,334,0.8,354.7c14.3,73.6,115.7,121.6,156.3,157.1c-2.1,1.2-3.9,2.2-5.5,3.1c-20.3,10.1-97.7,50.6-117.1,93.4
	c-21.9,48.6,3.5,83.3,20.3,88c51.9,12.4,105.9-9.5,134.6-54.5c24.1-37,28.6-83.4,12.1-124.4c-0.1-0.3-0.3-0.6-0.6-0.9l15.9-9.3
	c10.4-6.1,20.6-11.8,29.4-16.5c-5.9,17.2-9.4,35.1-10.4,53.2c-2,27.8,6.5,55.3,23.8,77.1c5.3,4.6,12.3,6.9,19.3,6.3
	c17.1,0,25-14.3,33.6-31.3c10.5-20.7,20-44.9,20-44.9s-11.8,65.2,20.3,65.2c11.7,0,23.5-15.2,28.8-22.9v0.1c0,0,0.3-0.4,0.9-1.5
	l1.9-3.1v-0.3c4.7-8.2,15.2-26.7,30.8-57.6c20.2-39.7,39.6-89.4,39.6-89.4c1.9,10.9,4.5,21.7,7.7,32.3c4.7,12.8,10.3,25.3,16.7,37.4
	c-4.7,6.6-7.6,10.2-7.6,10.2l0.1,0.1c-3.8,5-7.9,10.4-12.4,15.6c-13.5,14.9-26.1,30.6-37.5,47.1c-3.5,5.7-2,13.3,3.5,17.1
	c6,3.1,12.9,4.3,19.6,3.2c10.1-0.6,20-2.8,29.4-6.7c9-3.2,17.5-7.7,25.3-13.3c16.2-11.2,25.4-30.1,24.3-49.8
	c-0.9-12.2-4-24.1-9.2-35.2c1.5-2.1,2.9-4.1,4.2-6.1c16.2-24.2,30.9-49.5,43.8-75.7c1.9,10.9,4.5,21.7,7.7,32.3
	c3.9,11.1,8.7,21.8,14.3,32.1c-18.7,14.4-33.4,33.3-42.8,54.9c-9.2,26.6-2.1,38.6,11.4,41.3c7.4,0.5,14.8-1,21.3-4.4
	c9.7-3.2,18.8-7.9,27-13.9c17.6-10.4,28.8-29,29.8-49.4c-0.6-10-2.9-19.9-6.7-29.2c24.7-9.6,51.4-12.7,77.6-8.9
	c69.5,8.2,83.3,51.6,80.6,69.8c-2.5,13.1-10.5,24.5-22.1,31.3c-4.8,3.1-6.4,4.1-6,6.3c0.6,3.2,2.9,3.1,7,2.5
	c21.5-6.7,36.6-25.9,38.1-48.3C802.2,491.7,761.2,444.7,688.8,445.2L688.8,445.2z M152.3,625.9c-23.1,25.1-55.2,34.6-69.1,26.6
	c-14.9-8.6-9.1-45.7,19.3-72.3c16.8-15.1,35-28.7,54.3-40.5c3.4-2.1,8.3-5,14.3-8.6l1.6-0.9l0,0l3.5-2.2
	C186.5,562.6,177.4,600,152.3,625.9z M320.3,511.7c-8,19.6-24.8,69.7-35.1,66.9c-8.8-2.3-14.3-40.3-1.7-77.9
	c6.3-18.1,15.6-35,27.3-50.1c12.6-14,26.5-18.7,29.8-13C337.6,463.2,330.7,488.1,320.3,511.7L320.3,511.7z M459,578
	c-3.4,1.7-6.6,2.9-8,2.1c-1-0.6,1.5-2.9,1.5-2.9s17.4-18.7,24.3-27.2c3.9-5,8.6-10.8,13.6-17.4v1.9C490.2,556.9,468.6,571.9,459,578
	L459,578z M565.9,553.6c-2.5-1.7-2.1-7.6,6.3-25.9c5.8-11.7,13.9-22.2,23.8-30.7c1.5,4.3,2.3,8.9,2.3,13.5
	C598.6,530.6,585.3,548.3,565.9,553.6L565.9,553.6z"/>
</svg>
